<svg width="230" height="225" viewBox="0 0 230 225" fill="none" xmlns="http://www.w3.org/2000/svg">
<path d="M144.6 22.4625H144.5H119.8C133.6 15.5576 134.7 11.1546 134.2 8.75288C133 4.75007 128.5 1.74797 124.2 3.34909C118.6 5.45056 117.1 13.7564 115.6 19.7606C113.6 13.6563 111.8 5.95091 107.4 2.04818C106.1 0.947407 104.3 -0.253434 101.6 0.0467764C97.6 0.447057 91.8 5.45056 94.1 11.0545C96.4 16.4583 103.8 19.8607 108.7 22.5626H86.7H86.4C84.8 22.5626 83.5 23.8635 83.5 25.4646V36.7725C83.5 38.3736 84.8 39.6745 86.4 39.6745H86.7V72.9979V75.3996V76H144.5V75.4996V72.9979V39.5745H144.6C146.2 39.5745 147.5 38.2736 147.5 36.6724V25.3645C147.5 23.7634 146.2 22.4625 144.6 22.4625ZM125.9 5.85084C128 5.55063 130.9 7.15176 131.2 9.05309C131.6 11.8551 127.8 14.3568 126.1 15.4576C123.6 17.1588 121.2 18.0594 118.8 19.5604C119.7 15.8579 121.3 6.55133 125.9 5.85084ZM103 15.8579C100.8 14.3568 96.5 11.4548 96.6 8.05239C96.7 4.44986 102.3 1.44776 105.4 4.14965C109.3 7.55203 111.1 15.2574 112.5 20.7613C109.3 19.2602 106.2 17.9593 103 15.8579ZM109 72.9979H89.6V39.5745H109V72.9979ZM109 36.4723H86.5V25.4646H109V36.4723ZM119.2 36.4723V39.4744V72.9979H112V39.5745V36.5724V25.5647H119.2V36.4723ZM141.5 72.9979H122.1V39.5745H141.5V72.9979ZM144.4 36.4723H122.1V25.4646H144.4V36.4723Z" fill="#83B3D3"/>
<path d="M69.1754 126.304C68.6634 126.672 68.0074 126.936 67.2074 127.096C66.4234 127.256 65.6154 127.336 64.7834 127.336C63.7754 127.336 62.8154 127.184 61.9034 126.88C61.0074 126.56 60.2154 126.056 59.5274 125.368C58.8394 124.664 58.2874 123.76 57.8714 122.656C57.4714 121.536 57.2714 120.184 57.2714 118.6C57.2714 116.952 57.4954 115.576 57.9434 114.472C58.4074 113.352 58.9994 112.456 59.7194 111.784C60.4554 111.096 61.2714 110.608 62.1674 110.32C63.0634 110.016 63.9594 109.864 64.8554 109.864C65.8154 109.864 66.6234 109.928 67.2794 110.056C67.9514 110.184 68.5034 110.336 68.9354 110.512L68.2874 113.296C67.9194 113.12 67.4794 112.992 66.9674 112.912C66.4714 112.832 65.8634 112.792 65.1434 112.792C63.8154 112.792 62.7434 113.264 61.9274 114.208C61.1274 115.152 60.7274 116.616 60.7274 118.6C60.7274 119.464 60.8234 120.256 61.0154 120.976C61.2074 121.68 61.4954 122.288 61.8794 122.8C62.2794 123.296 62.7674 123.688 63.3434 123.976C63.9354 124.248 64.6154 124.384 65.3834 124.384C66.1034 124.384 66.7114 124.312 67.2074 124.168C67.7034 124.024 68.1354 123.84 68.5034 123.616L69.1754 126.304ZM75.8372 117.616L76.3173 119.8H76.4613L76.8453 117.544L79.3653 110.2H82.7493L78.2853 121.816C77.9333 122.728 77.5893 123.52 77.2533 124.192C76.9333 124.864 76.5813 125.424 76.1973 125.872C75.8293 126.304 75.4133 126.632 74.9492 126.856C74.4853 127.064 73.9413 127.168 73.3173 127.168C72.7893 127.168 72.3573 127.128 72.0213 127.048C71.7013 126.984 71.3493 126.832 70.9653 126.592L71.8053 123.928C72.0773 124.072 72.3253 124.16 72.5493 124.192C72.7733 124.224 73.0133 124.24 73.2693 124.24C74.0213 124.24 74.5493 123.648 74.8533 122.464L68.5652 110.2H72.4293L75.8372 117.616ZM95.1659 114.112C95.1659 114.528 95.1099 114.944 94.9979 115.36C94.9019 115.776 94.7339 116.16 94.4939 116.512C94.2539 116.848 93.9419 117.152 93.5579 117.424C93.1739 117.68 92.7099 117.872 92.1659 118V118.144C92.6459 118.224 93.1019 118.36 93.5339 118.552C93.9659 118.744 94.3419 119.008 94.6619 119.344C94.9819 119.68 95.2299 120.088 95.4059 120.568C95.5979 121.048 95.6939 121.616 95.6939 122.272C95.6939 123.136 95.5099 123.888 95.1419 124.528C94.7739 125.152 94.2779 125.664 93.6539 126.064C93.0459 126.464 92.3499 126.76 91.5659 126.952C90.7819 127.144 89.9739 127.24 89.1419 127.24C88.8699 127.24 88.5179 127.24 88.0859 127.24C87.6699 127.24 87.2139 127.224 86.7179 127.192C86.2379 127.176 85.7419 127.144 85.2299 127.096C84.7339 127.048 84.2779 126.976 83.8619 126.88V110.32C84.1659 110.272 84.5099 110.224 84.8939 110.176C85.2939 110.128 85.7179 110.088 86.1659 110.056C86.6139 110.024 87.0699 110 87.5339 109.984C88.0139 109.968 88.4859 109.96 88.9499 109.96C89.7339 109.96 90.4939 110.024 91.2299 110.152C91.9819 110.264 92.6459 110.472 93.2219 110.776C93.8139 111.08 94.2859 111.504 94.6379 112.048C94.9899 112.592 95.1659 113.28 95.1659 114.112ZM89.1659 124.528C89.5659 124.528 89.9499 124.48 90.3179 124.384C90.7019 124.288 91.0379 124.144 91.3259 123.952C91.6139 123.744 91.8459 123.488 92.0219 123.184C92.1979 122.88 92.2859 122.52 92.2859 122.104C92.2859 121.576 92.1819 121.16 91.9739 120.856C91.7659 120.552 91.4939 120.32 91.1579 120.16C90.8219 119.984 90.4459 119.872 90.0299 119.824C89.6139 119.776 89.1979 119.752 88.7819 119.752H87.0299V124.384C87.1099 124.416 87.2379 124.44 87.4139 124.456C87.5899 124.472 87.7739 124.488 87.9659 124.504C88.1739 124.504 88.3819 124.512 88.5899 124.528C88.8139 124.528 89.0059 124.528 89.1659 124.528ZM88.0859 117.256C88.3099 117.256 88.5659 117.248 88.8539 117.232C89.1579 117.216 89.4059 117.192 89.5979 117.16C90.2059 116.968 90.7259 116.68 91.1579 116.296C91.6059 115.912 91.8299 115.408 91.8299 114.784C91.8299 114.368 91.7499 114.024 91.5899 113.752C91.4299 113.48 91.2139 113.264 90.9419 113.104C90.6859 112.944 90.3899 112.832 90.0539 112.768C89.7179 112.704 89.3659 112.672 88.9979 112.672C88.5819 112.672 88.1979 112.68 87.8459 112.696C87.4939 112.712 87.2219 112.736 87.0299 112.768V117.256H88.0859ZM98.0416 110.2H108.002V113.128H101.33V117.04H107.402V119.968H101.33V124.072H108.122V127H98.0416V110.2ZM120.013 119.968H113.869V127H110.581V110.2H113.869V117.04H120.013V110.2H123.301V127H120.013V119.968ZM136.005 117.688L136.197 115.504H136.077L134.949 117.76L128.685 127H126.213V110.2H129.501V119.344L129.261 121.6H129.405L130.581 119.272L136.845 110.2H139.293V127H136.005V117.688ZM142.198 110.368C142.87 110.24 143.606 110.144 144.406 110.08C145.222 110 146.03 109.96 146.83 109.96C147.662 109.96 148.494 110.032 149.326 110.176C150.174 110.304 150.934 110.576 151.606 110.992C152.278 111.392 152.822 111.96 153.238 112.696C153.67 113.416 153.886 114.36 153.886 115.528C153.886 116.584 153.702 117.48 153.334 118.216C152.966 118.936 152.478 119.528 151.87 119.992C151.262 120.456 150.566 120.792 149.782 121C149.014 121.208 148.214 121.312 147.382 121.312C147.302 121.312 147.174 121.312 146.998 121.312C146.822 121.312 146.638 121.312 146.446 121.312C146.254 121.296 146.062 121.28 145.87 121.264C145.694 121.248 145.566 121.232 145.486 121.216V127H142.198V110.368ZM147.094 112.792C146.774 112.792 146.47 112.808 146.182 112.84C145.894 112.856 145.662 112.88 145.486 112.912V118.36C145.55 118.376 145.646 118.392 145.774 118.408C145.902 118.424 146.038 118.44 146.182 118.456C146.326 118.456 146.462 118.456 146.59 118.456C146.734 118.456 146.838 118.456 146.902 118.456C147.334 118.456 147.758 118.416 148.174 118.336C148.606 118.256 148.99 118.112 149.326 117.904C149.662 117.68 149.926 117.376 150.118 116.992C150.326 116.608 150.43 116.104 150.43 115.48C150.43 114.952 150.334 114.52 150.142 114.184C149.95 113.832 149.694 113.552 149.374 113.344C149.07 113.136 148.718 112.992 148.318 112.912C147.918 112.832 147.51 112.792 147.094 112.792ZM168.892 110.2H172.18V127H168.892V110.2ZM155.932 110.2H159.22V116.224C159.396 116.192 159.676 116.152 160.06 116.104C160.444 116.056 160.82 116.032 161.188 116.032C161.988 116.032 162.748 116.112 163.468 116.272C164.204 116.432 164.844 116.72 165.388 117.136C165.932 117.536 166.364 118.088 166.684 118.792C167.004 119.48 167.164 120.352 167.164 121.408C167.164 123.36 166.596 124.824 165.46 125.8C164.324 126.76 162.636 127.24 160.396 127.24C160.172 127.24 159.884 127.232 159.532 127.216C159.18 127.216 158.796 127.2 158.38 127.168C157.98 127.136 157.564 127.096 157.132 127.048C156.7 127 156.3 126.928 155.932 126.832V110.2ZM160.636 124.312C161.548 124.312 162.284 124.104 162.844 123.688C163.42 123.256 163.708 122.544 163.708 121.552C163.708 121.024 163.628 120.592 163.468 120.256C163.308 119.92 163.092 119.656 162.82 119.464C162.548 119.272 162.228 119.144 161.86 119.08C161.492 119 161.092 118.96 160.66 118.96C160.436 118.96 160.172 118.984 159.868 119.032C159.564 119.064 159.348 119.104 159.22 119.152V124.168C159.396 124.216 159.604 124.256 159.844 124.288C160.1 124.304 160.364 124.312 160.636 124.312Z" fill="black"/>
<path d="M36.0408 173.222H29.9928V179H28.4988V166.4H29.9928V171.89H36.0408V166.4H37.5348V179H36.0408V173.222ZM47.0185 178.28C46.6585 178.568 46.2025 178.796 45.6505 178.964C45.1105 179.132 44.5345 179.216 43.9225 179.216C43.2385 179.216 42.6445 179.108 42.1405 178.892C41.6365 178.664 41.2225 178.346 40.8985 177.938C40.5745 177.518 40.3345 177.02 40.1785 176.444C40.0225 175.868 39.9445 175.22 39.9445 174.5C39.9445 172.964 40.2865 171.794 40.9705 170.99C41.6545 170.186 42.6325 169.784 43.9045 169.784C44.3125 169.784 44.7205 169.832 45.1285 169.928C45.5365 170.012 45.9025 170.18 46.2265 170.432C46.5505 170.684 46.8145 171.044 47.0185 171.512C47.2225 171.968 47.3245 172.574 47.3245 173.33C47.3245 173.726 47.2885 174.164 47.2165 174.644H41.4385C41.4385 175.172 41.4925 175.64 41.6005 176.048C41.7085 176.456 41.8765 176.804 42.1045 177.092C42.3325 177.368 42.6265 177.584 42.9865 177.74C43.3585 177.884 43.8085 177.956 44.3365 177.956C44.7445 177.956 45.1525 177.884 45.5605 177.74C45.9685 177.596 46.2745 177.428 46.4785 177.236L47.0185 178.28ZM43.9225 171.044C43.2145 171.044 42.6445 171.23 42.2125 171.602C41.7925 171.974 41.5405 172.61 41.4565 173.51H45.9205C45.9205 172.598 45.7465 171.962 45.3985 171.602C45.0505 171.23 44.5585 171.044 43.9225 171.044ZM59.7081 171.26H56.8821V179H55.4421V171.26H52.6161V170H59.7081V171.26ZM60.3527 174.5C60.3527 172.976 60.6887 171.812 61.3607 171.008C62.0447 170.192 63.0227 169.784 64.2947 169.784C64.9667 169.784 65.5487 169.898 66.0407 170.126C66.5447 170.342 66.9587 170.66 67.2827 171.08C67.6067 171.488 67.8467 171.986 68.0027 172.574C68.1587 173.15 68.2367 173.792 68.2367 174.5C68.2367 176.024 67.8947 177.194 67.2107 178.01C66.5387 178.814 65.5667 179.216 64.2947 179.216C63.6227 179.216 63.0347 179.108 62.5307 178.892C62.0387 178.664 61.6307 178.346 61.3067 177.938C60.9827 177.518 60.7427 177.02 60.5867 176.444C60.4307 175.856 60.3527 175.208 60.3527 174.5ZM61.8467 174.5C61.8467 174.956 61.8887 175.394 61.9727 175.814C62.0687 176.234 62.2127 176.6 62.4047 176.912C62.5967 177.224 62.8487 177.476 63.1607 177.668C63.4727 177.86 63.8507 177.956 64.2947 177.956C65.9267 177.968 66.7427 176.816 66.7427 174.5C66.7427 174.032 66.6947 173.588 66.5987 173.168C66.5147 172.748 66.3767 172.382 66.1847 172.07C65.9927 171.758 65.7407 171.512 65.4287 171.332C65.1167 171.14 64.7387 171.044 64.2947 171.044C62.6627 171.032 61.8467 172.184 61.8467 174.5ZM75.2436 171.26H72.6336C72.5976 171.764 72.5616 172.31 72.5256 172.898C72.4896 173.474 72.4356 174.056 72.3636 174.644C72.2916 175.22 72.1956 175.778 72.0756 176.318C71.9556 176.846 71.7996 177.314 71.6076 177.722C71.4276 178.13 71.1996 178.46 70.9236 178.712C70.6596 178.952 70.3416 179.072 69.9696 179.072C69.7416 179.072 69.5436 179.06 69.3756 179.036C69.2076 179.012 69.0576 178.97 68.9256 178.91L69.1416 177.704C69.2856 177.752 69.4416 177.776 69.6096 177.776C69.8496 177.776 70.0656 177.674 70.2576 177.47C70.4496 177.266 70.6176 176.882 70.7616 176.318C70.9056 175.742 71.0256 174.95 71.1216 173.942C71.2176 172.934 71.2836 171.62 71.3196 170H76.6836V179H75.2436V171.26ZM80.8944 177.74C81.3384 177.812 81.7644 177.848 82.1724 177.848C82.9284 177.848 83.4864 177.704 83.8464 177.416C84.2064 177.116 84.3864 176.696 84.3864 176.156C84.3864 175.676 84.2124 175.28 83.8644 174.968C83.5164 174.656 82.9704 174.5 82.2264 174.5C82.0224 174.5 81.8004 174.506 81.5604 174.518C81.3204 174.53 81.0984 174.566 80.8944 174.626V177.74ZM80.8944 173.438C81.1824 173.39 81.4584 173.36 81.7224 173.348C81.9864 173.324 82.2384 173.312 82.4784 173.312C83.1024 173.312 83.6304 173.384 84.0624 173.528C84.4944 173.66 84.8424 173.846 85.1064 174.086C85.3824 174.326 85.5804 174.614 85.7004 174.95C85.8204 175.274 85.8804 175.622 85.8804 175.994C85.8804 177.086 85.5504 177.878 84.8904 178.37C84.2424 178.862 83.2284 179.108 81.8484 179.108C81.0804 179.108 80.2824 179.072 79.4544 179V170H80.8944V173.438ZM90.072 174.95H89.244V179H87.804V170H89.244V174.068L90.018 173.816L92.898 170H94.464L91.674 173.618L90.918 174.212L91.854 174.932L94.86 179H93.078L90.072 174.95ZM95.7023 174.5C95.7023 172.976 96.0383 171.812 96.7103 171.008C97.3943 170.192 98.3723 169.784 99.6443 169.784C100.316 169.784 100.898 169.898 101.39 170.126C101.894 170.342 102.308 170.66 102.632 171.08C102.956 171.488 103.196 171.986 103.352 172.574C103.508 173.15 103.586 173.792 103.586 174.5C103.586 176.024 103.244 177.194 102.56 178.01C101.888 178.814 100.916 179.216 99.6443 179.216C98.9723 179.216 98.3843 179.108 97.8803 178.892C97.3883 178.664 96.9803 178.346 96.6563 177.938C96.3323 177.518 96.0923 177.02 95.9363 176.444C95.7803 175.856 95.7023 175.208 95.7023 174.5ZM97.1963 174.5C97.1963 174.956 97.2383 175.394 97.3223 175.814C97.4183 176.234 97.5623 176.6 97.7543 176.912C97.9463 177.224 98.1983 177.476 98.5103 177.668C98.8223 177.86 99.2003 177.956 99.6443 177.956C101.276 177.968 102.092 176.816 102.092 174.5C102.092 174.032 102.044 173.588 101.948 173.168C101.864 172.748 101.726 172.382 101.534 172.07C101.342 171.758 101.09 171.512 100.778 171.332C100.466 171.14 100.088 171.044 99.6443 171.044C98.0123 171.032 97.1963 172.184 97.1963 174.5ZM112.924 174.95H112.096V179H110.656V170H112.096V174.068L112.87 173.816L115.75 170H117.316L114.526 173.618L113.77 174.212L114.706 174.932L117.712 179H115.93L112.924 174.95ZM124.867 173.672L124.921 172.556H124.867L124.129 173.708L120.079 179H119.251V170H120.691V175.49L120.637 176.552H120.709L121.411 175.436L125.461 170H126.307V179H124.867V173.672ZM134.819 171.26H131.993V179H130.553V171.26H127.727V170H134.819V171.26ZM136.105 170.666C136.561 170.39 137.089 170.186 137.689 170.054C138.301 169.922 138.937 169.856 139.597 169.856C140.221 169.856 140.719 169.94 141.091 170.108C141.475 170.276 141.763 170.498 141.955 170.774C142.159 171.038 142.291 171.332 142.351 171.656C142.423 171.98 142.459 172.304 142.459 172.628C142.459 173.348 142.441 174.05 142.405 174.734C142.369 175.418 142.351 176.066 142.351 176.678C142.351 177.122 142.369 177.542 142.405 177.938C142.441 178.334 142.507 178.7 142.603 179.036H141.541L141.163 177.776H141.073C140.965 177.944 140.827 178.112 140.659 178.28C140.503 178.436 140.311 178.58 140.083 178.712C139.855 178.832 139.591 178.934 139.291 179.018C138.991 179.102 138.649 179.144 138.265 179.144C137.881 179.144 137.521 179.084 137.185 178.964C136.861 178.844 136.579 178.676 136.339 178.46C136.099 178.232 135.907 177.962 135.763 177.65C135.631 177.338 135.565 176.984 135.565 176.588C135.565 176.06 135.673 175.622 135.889 175.274C136.105 174.914 136.405 174.632 136.789 174.428C137.185 174.212 137.653 174.062 138.193 173.978C138.745 173.882 139.351 173.834 140.011 173.834C140.179 173.834 140.341 173.834 140.497 173.834C140.665 173.834 140.833 173.846 141.001 173.87C141.037 173.51 141.055 173.186 141.055 172.898C141.055 172.238 140.923 171.776 140.659 171.512C140.395 171.248 139.915 171.116 139.219 171.116C139.015 171.116 138.793 171.134 138.553 171.17C138.325 171.194 138.085 171.236 137.833 171.296C137.593 171.344 137.359 171.41 137.131 171.494C136.915 171.566 136.723 171.65 136.555 171.746L136.105 170.666ZM138.661 177.884C138.997 177.884 139.297 177.842 139.561 177.758C139.825 177.662 140.053 177.548 140.245 177.416C140.437 177.272 140.593 177.116 140.713 176.948C140.845 176.78 140.941 176.618 141.001 176.462V174.968C140.833 174.956 140.659 174.95 140.479 174.95C140.311 174.938 140.143 174.932 139.975 174.932C139.603 174.932 139.237 174.956 138.877 175.004C138.529 175.04 138.217 175.118 137.941 175.238C137.677 175.346 137.461 175.502 137.293 175.706C137.137 175.898 137.059 176.144 137.059 176.444C137.059 176.864 137.209 177.212 137.509 177.488C137.809 177.752 138.193 177.884 138.661 177.884ZM150.795 173.672L150.849 172.556H150.795L150.057 173.708L146.007 179H145.179V170H146.619V175.49L146.565 176.552H146.637L147.339 175.436L151.389 170H152.235V179H150.795V173.672ZM147.249 166.364C147.369 166.916 147.573 167.3 147.861 167.516C148.161 167.732 148.503 167.84 148.887 167.84C149.271 167.84 149.613 167.726 149.913 167.498C150.213 167.27 150.417 166.898 150.525 166.382L151.605 166.724C151.497 167.42 151.185 167.954 150.669 168.326C150.165 168.698 149.559 168.884 148.851 168.884C148.527 168.884 148.203 168.842 147.879 168.758C147.567 168.674 147.285 168.548 147.033 168.38C146.781 168.212 146.565 167.996 146.385 167.732C146.205 167.468 146.085 167.156 146.025 166.796L147.249 166.364ZM161.143 178.406C160.783 178.67 160.357 178.868 159.865 179C159.373 179.144 158.857 179.216 158.317 179.216C157.621 179.216 157.033 179.108 156.553 178.892C156.073 178.664 155.677 178.346 155.365 177.938C155.065 177.518 154.843 177.02 154.699 176.444C154.567 175.856 154.501 175.208 154.501 174.5C154.501 172.976 154.837 171.812 155.509 171.008C156.181 170.192 157.147 169.784 158.407 169.784C158.983 169.784 159.469 169.832 159.865 169.928C160.273 170.012 160.639 170.138 160.963 170.306L160.549 171.548C160.273 171.392 159.967 171.272 159.631 171.188C159.295 171.092 158.935 171.044 158.551 171.044C156.847 171.044 155.995 172.196 155.995 174.5C155.995 174.956 156.037 175.394 156.121 175.814C156.217 176.222 156.367 176.588 156.571 176.912C156.787 177.224 157.063 177.476 157.399 177.668C157.747 177.86 158.173 177.956 158.677 177.956C159.109 177.956 159.493 177.89 159.829 177.758C160.177 177.626 160.459 177.476 160.675 177.308L161.143 178.406ZM165.394 174.95H164.566V179H163.126V170H164.566V174.068L165.34 173.816L168.22 170H169.786L166.996 173.618L166.24 174.212L167.176 174.932L170.182 179H168.4L165.394 174.95ZM171.025 174.5C171.025 172.976 171.361 171.812 172.033 171.008C172.717 170.192 173.695 169.784 174.967 169.784C175.639 169.784 176.221 169.898 176.713 170.126C177.217 170.342 177.631 170.66 177.955 171.08C178.279 171.488 178.519 171.986 178.675 172.574C178.831 173.15 178.909 173.792 178.909 174.5C178.909 176.024 178.567 177.194 177.883 178.01C177.211 178.814 176.239 179.216 174.967 179.216C174.295 179.216 173.707 179.108 173.203 178.892C172.711 178.664 172.303 178.346 171.979 177.938C171.655 177.518 171.415 177.02 171.259 176.444C171.103 175.856 171.025 175.208 171.025 174.5ZM172.519 174.5C172.519 174.956 172.561 175.394 172.645 175.814C172.741 176.234 172.885 176.6 173.077 176.912C173.269 177.224 173.521 177.476 173.833 177.668C174.145 177.86 174.523 177.956 174.967 177.956C176.599 177.968 177.415 176.816 177.415 174.5C177.415 174.032 177.367 173.588 177.271 173.168C177.187 172.748 177.049 172.382 176.857 172.07C176.665 171.758 176.413 171.512 176.101 171.332C175.789 171.14 175.411 171.044 174.967 171.044C173.335 171.032 172.519 172.184 172.519 174.5ZM186.435 171.26H182.619V179H181.179V170H186.435V171.26ZM187.038 174.5C187.038 172.976 187.374 171.812 188.046 171.008C188.73 170.192 189.708 169.784 190.98 169.784C191.652 169.784 192.234 169.898 192.726 170.126C193.23 170.342 193.644 170.66 193.968 171.08C194.292 171.488 194.532 171.986 194.688 172.574C194.844 173.15 194.922 173.792 194.922 174.5C194.922 176.024 194.58 177.194 193.896 178.01C193.224 178.814 192.252 179.216 190.98 179.216C190.308 179.216 189.72 179.108 189.216 178.892C188.724 178.664 188.316 178.346 187.992 177.938C187.668 177.518 187.428 177.02 187.272 176.444C187.116 175.856 187.038 175.208 187.038 174.5ZM188.532 174.5C188.532 174.956 188.574 175.394 188.658 175.814C188.754 176.234 188.898 176.6 189.09 176.912C189.282 177.224 189.534 177.476 189.846 177.668C190.158 177.86 190.536 177.956 190.98 177.956C192.612 177.968 193.428 176.816 193.428 174.5C193.428 174.032 193.38 173.588 193.284 173.168C193.2 172.748 193.062 172.382 192.87 172.07C192.678 171.758 192.426 171.512 192.114 171.332C191.802 171.14 191.424 171.044 190.98 171.044C189.348 171.032 188.532 172.184 188.532 174.5ZM196.478 178.226C196.478 177.938 196.574 177.704 196.766 177.524C196.958 177.344 197.204 177.254 197.504 177.254C197.876 177.254 198.176 177.386 198.404 177.65C198.644 177.914 198.764 178.298 198.764 178.802C198.764 179.234 198.704 179.612 198.584 179.936C198.464 180.26 198.308 180.536 198.116 180.764C197.924 181.004 197.714 181.196 197.486 181.34C197.258 181.496 197.03 181.61 196.802 181.682L196.352 180.98C196.784 180.812 197.102 180.548 197.306 180.188C197.522 179.84 197.63 179.486 197.63 179.126C197.522 179.162 197.42 179.18 197.324 179.18C197.084 179.18 196.88 179.102 196.712 178.946C196.556 178.778 196.478 178.538 196.478 178.226ZM19.4838 196.022H15.4158V200H13.9758V191H15.4158V194.762H19.4838V191H20.9238V200H19.4838V196.022ZM23.1925 195.5C23.1925 193.976 23.5285 192.812 24.2005 192.008C24.8845 191.192 25.8625 190.784 27.1345 190.784C27.8065 190.784 28.3885 190.898 28.8805 191.126C29.3845 191.342 29.7985 191.66 30.1225 192.08C30.4465 192.488 30.6865 192.986 30.8425 193.574C30.9985 194.15 31.0765 194.792 31.0765 195.5C31.0765 197.024 30.7345 198.194 30.0505 199.01C29.3785 199.814 28.4065 200.216 27.1345 200.216C26.4625 200.216 25.8745 200.108 25.3705 199.892C24.8785 199.664 24.4705 199.346 24.1465 198.938C23.8225 198.518 23.5825 198.02 23.4265 197.444C23.2705 196.856 23.1925 196.208 23.1925 195.5ZM24.6865 195.5C24.6865 195.956 24.7285 196.394 24.8125 196.814C24.9085 197.234 25.0525 197.6 25.2445 197.912C25.4365 198.224 25.6885 198.476 26.0005 198.668C26.3125 198.86 26.6905 198.956 27.1345 198.956C28.7665 198.968 29.5825 197.816 29.5825 195.5C29.5825 195.032 29.5345 194.588 29.4385 194.168C29.3545 193.748 29.2165 193.382 29.0245 193.07C28.8325 192.758 28.5805 192.512 28.2685 192.332C27.9565 192.14 27.5785 192.044 27.1345 192.044C25.5025 192.032 24.6865 193.184 24.6865 195.5ZM43.7618 194.672L43.8158 193.556H43.7618L43.0238 194.708L38.9738 200H38.1458V191H39.5858V196.49L39.5318 197.552H39.6038L40.3058 196.436L44.3558 191H45.2018V200H43.7618V194.672ZM58.2788 196.022H54.2108V200H52.7708V191H54.2108V194.762H58.2788V191H59.7188V200H58.2788V196.022ZM62.3475 191.666C62.8035 191.39 63.3315 191.186 63.9315 191.054C64.5435 190.922 65.1795 190.856 65.8395 190.856C66.4635 190.856 66.9615 190.94 67.3335 191.108C67.7175 191.276 68.0055 191.498 68.1975 191.774C68.4015 192.038 68.5335 192.332 68.5935 192.656C68.6655 192.98 68.7015 193.304 68.7015 193.628C68.7015 194.348 68.6835 195.05 68.6475 195.734C68.6115 196.418 68.5935 197.066 68.5935 197.678C68.5935 198.122 68.6115 198.542 68.6475 198.938C68.6835 199.334 68.7495 199.7 68.8455 200.036H67.7835L67.4055 198.776H67.3155C67.2075 198.944 67.0695 199.112 66.9015 199.28C66.7455 199.436 66.5535 199.58 66.3255 199.712C66.0975 199.832 65.8335 199.934 65.5335 200.018C65.2335 200.102 64.8915 200.144 64.5075 200.144C64.1235 200.144 63.7635 200.084 63.4275 199.964C63.1035 199.844 62.8215 199.676 62.5815 199.46C62.3415 199.232 62.1495 198.962 62.0055 198.65C61.8735 198.338 61.8075 197.984 61.8075 197.588C61.8075 197.06 61.9155 196.622 62.1315 196.274C62.3475 195.914 62.6475 195.632 63.0315 195.428C63.4275 195.212 63.8955 195.062 64.4355 194.978C64.9875 194.882 65.5935 194.834 66.2535 194.834C66.4215 194.834 66.5835 194.834 66.7395 194.834C66.9075 194.834 67.0755 194.846 67.2435 194.87C67.2795 194.51 67.2975 194.186 67.2975 193.898C67.2975 193.238 67.1655 192.776 66.9015 192.512C66.6375 192.248 66.1575 192.116 65.4615 192.116C65.2575 192.116 65.0355 192.134 64.7955 192.17C64.5675 192.194 64.3275 192.236 64.0755 192.296C63.8355 192.344 63.6015 192.41 63.3735 192.494C63.1575 192.566 62.9655 192.65 62.7975 192.746L62.3475 191.666ZM64.9035 198.884C65.2395 198.884 65.5395 198.842 65.8035 198.758C66.0675 198.662 66.2955 198.548 66.4875 198.416C66.6795 198.272 66.8355 198.116 66.9555 197.948C67.0875 197.78 67.1835 197.618 67.2435 197.462V195.968C67.0755 195.956 66.9015 195.95 66.7215 195.95C66.5535 195.938 66.3855 195.932 66.2175 195.932C65.8455 195.932 65.4795 195.956 65.1195 196.004C64.7715 196.04 64.4595 196.118 64.1835 196.238C63.9195 196.346 63.7035 196.502 63.5355 196.706C63.3795 196.898 63.3015 197.144 63.3015 197.444C63.3015 197.864 63.4515 198.212 63.7515 198.488C64.0515 198.752 64.4355 198.884 64.9035 198.884ZM77.5592 199.406C77.1992 199.67 76.7732 199.868 76.2812 200C75.7892 200.144 75.2732 200.216 74.7332 200.216C74.0372 200.216 73.4492 200.108 72.9692 199.892C72.4892 199.664 72.0932 199.346 71.7812 198.938C71.4812 198.518 71.2592 198.02 71.1152 197.444C70.9832 196.856 70.9172 196.208 70.9172 195.5C70.9172 193.976 71.2532 192.812 71.9252 192.008C72.5972 191.192 73.5632 190.784 74.8232 190.784C75.3992 190.784 75.8852 190.832 76.2812 190.928C76.6892 191.012 77.0552 191.138 77.3792 191.306L76.9652 192.548C76.6892 192.392 76.3832 192.272 76.0472 192.188C75.7112 192.092 75.3512 192.044 74.9672 192.044C73.2632 192.044 72.4112 193.196 72.4112 195.5C72.4112 195.956 72.4532 196.394 72.5372 196.814C72.6332 197.222 72.7832 197.588 72.9872 197.912C73.2032 198.224 73.4792 198.476 73.8152 198.668C74.1632 198.86 74.5892 198.956 75.0932 198.956C75.5252 198.956 75.9092 198.89 76.2452 198.758C76.5932 198.626 76.8752 198.476 77.0912 198.308L77.5592 199.406ZM85.003 192.26H82.177V200H80.737V192.26H77.911V191H85.003V192.26ZM85.6476 195.5C85.6476 193.976 85.9836 192.812 86.6556 192.008C87.3396 191.192 88.3176 190.784 89.5896 190.784C90.2616 190.784 90.8436 190.898 91.3356 191.126C91.8396 191.342 92.2536 191.66 92.5776 192.08C92.9016 192.488 93.1416 192.986 93.2976 193.574C93.4536 194.15 93.5316 194.792 93.5316 195.5C93.5316 197.024 93.1896 198.194 92.5056 199.01C91.8336 199.814 90.8616 200.216 89.5896 200.216C88.9176 200.216 88.3296 200.108 87.8256 199.892C87.3336 199.664 86.9256 199.346 86.6016 198.938C86.2776 198.518 86.0376 198.02 85.8816 197.444C85.7256 196.856 85.6476 196.208 85.6476 195.5ZM87.1416 195.5C87.1416 195.956 87.1836 196.394 87.2676 196.814C87.3636 197.234 87.5076 197.6 87.6996 197.912C87.8916 198.224 88.1436 198.476 88.4556 198.668C88.7676 198.86 89.1456 198.956 89.5896 198.956C91.2216 198.968 92.0376 197.816 92.0376 195.5C92.0376 195.032 91.9896 194.588 91.8936 194.168C91.8096 193.748 91.6716 193.382 91.4796 193.07C91.2876 192.758 91.0356 192.512 90.7236 192.332C90.4116 192.14 90.0336 192.044 89.5896 192.044C87.9576 192.032 87.1416 193.184 87.1416 195.5ZM100.284 196.274L98.898 196.49L96.522 200H94.776L96.936 196.922L97.656 196.256C97.032 196.16 96.498 195.908 96.054 195.5C95.622 195.092 95.406 194.54 95.406 193.844C95.406 193.304 95.496 192.842 95.676 192.458C95.868 192.074 96.138 191.756 96.486 191.504C96.834 191.252 97.248 191.072 97.728 190.964C98.208 190.844 98.748 190.784 99.348 190.784C99.792 190.784 100.206 190.814 100.59 190.874C100.974 190.934 101.352 191 101.724 191.072V200H100.284V196.274ZM100.284 192.224C100.128 192.164 99.954 192.122 99.762 192.098C99.57 192.062 99.402 192.044 99.258 192.044C98.49 192.044 97.902 192.182 97.494 192.458C97.098 192.734 96.9 193.172 96.9 193.772C96.9 194.312 97.11 194.732 97.53 195.032C97.962 195.32 98.526 195.464 99.222 195.464C99.234 195.464 99.252 195.464 99.276 195.464C99.3 195.464 99.348 195.464 99.42 195.464C99.492 195.464 99.594 195.464 99.726 195.464C99.858 195.452 100.044 195.44 100.284 195.428V192.224ZM116.117 202.286H115.145L114.875 200H104.345V191H105.785V198.74H108.863V191H110.303V198.74H113.381V191H114.821V198.74H116.117V202.286ZM124.468 199.28C124.108 199.568 123.652 199.796 123.1 199.964C122.56 200.132 121.984 200.216 121.372 200.216C120.688 200.216 120.094 200.108 119.59 199.892C119.086 199.664 118.672 199.346 118.348 198.938C118.024 198.518 117.784 198.02 117.628 197.444C117.472 196.868 117.394 196.22 117.394 195.5C117.394 193.964 117.736 192.794 118.42 191.99C119.104 191.186 120.082 190.784 121.354 190.784C121.762 190.784 122.17 190.832 122.578 190.928C122.986 191.012 123.352 191.18 123.676 191.432C124 191.684 124.264 192.044 124.468 192.512C124.672 192.968 124.774 193.574 124.774 194.33C124.774 194.726 124.738 195.164 124.666 195.644H118.888C118.888 196.172 118.942 196.64 119.05 197.048C119.158 197.456 119.326 197.804 119.554 198.092C119.782 198.368 120.076 198.584 120.436 198.74C120.808 198.884 121.258 198.956 121.786 198.956C122.194 198.956 122.602 198.884 123.01 198.74C123.418 198.596 123.724 198.428 123.928 198.236L124.468 199.28ZM121.372 192.044C120.664 192.044 120.094 192.23 119.662 192.602C119.242 192.974 118.99 193.61 118.906 194.51H123.37C123.37 193.598 123.196 192.962 122.848 192.602C122.5 192.23 122.008 192.044 121.372 192.044ZM132.294 192.26H128.478V200H127.038V191H132.294V192.26ZM132.898 195.5C132.898 193.976 133.234 192.812 133.906 192.008C134.59 191.192 135.568 190.784 136.84 190.784C137.512 190.784 138.094 190.898 138.586 191.126C139.09 191.342 139.504 191.66 139.828 192.08C140.152 192.488 140.392 192.986 140.548 193.574C140.704 194.15 140.782 194.792 140.782 195.5C140.782 197.024 140.44 198.194 139.756 199.01C139.084 199.814 138.112 200.216 136.84 200.216C136.168 200.216 135.58 200.108 135.076 199.892C134.584 199.664 134.176 199.346 133.852 198.938C133.528 198.518 133.288 198.02 133.132 197.444C132.976 196.856 132.898 196.208 132.898 195.5ZM134.392 195.5C134.392 195.956 134.434 196.394 134.518 196.814C134.614 197.234 134.758 197.6 134.95 197.912C135.142 198.224 135.394 198.476 135.706 198.668C136.018 198.86 136.396 198.956 136.84 198.956C138.472 198.968 139.288 197.816 139.288 195.5C139.288 195.032 139.24 194.588 139.144 194.168C139.06 193.748 138.922 193.382 138.73 193.07C138.538 192.758 138.286 192.512 137.974 192.332C137.662 192.14 137.284 192.044 136.84 192.044C135.208 192.032 134.392 193.184 134.392 195.5ZM155.285 194.654L155.393 192.944H155.303L154.655 194.33L152.477 197.858H151.973L149.705 194.33L149.111 192.944H149.039L149.183 194.636V200H147.851V191H149.273L151.793 195.032L152.315 196.076H152.351L152.891 194.996L155.249 191H156.689V200H155.285V194.654ZM166.022 199.28C165.662 199.568 165.206 199.796 164.654 199.964C164.114 200.132 163.538 200.216 162.926 200.216C162.242 200.216 161.648 200.108 161.144 199.892C160.64 199.664 160.226 199.346 159.902 198.938C159.578 198.518 159.338 198.02 159.182 197.444C159.026 196.868 158.948 196.22 158.948 195.5C158.948 193.964 159.29 192.794 159.974 191.99C160.658 191.186 161.636 190.784 162.908 190.784C163.316 190.784 163.724 190.832 164.132 190.928C164.54 191.012 164.906 191.18 165.23 191.432C165.554 191.684 165.818 192.044 166.022 192.512C166.226 192.968 166.328 193.574 166.328 194.33C166.328 194.726 166.292 195.164 166.22 195.644H160.442C160.442 196.172 160.496 196.64 160.604 197.048C160.712 197.456 160.88 197.804 161.108 198.092C161.336 198.368 161.63 198.584 161.99 198.74C162.362 198.884 162.812 198.956 163.34 198.956C163.748 198.956 164.156 198.884 164.564 198.74C164.972 198.596 165.278 198.428 165.482 198.236L166.022 199.28ZM162.926 192.044C162.218 192.044 161.648 192.23 161.216 192.602C160.796 192.974 160.544 193.61 160.46 194.51H164.924C164.924 193.598 164.75 192.962 164.402 192.602C164.054 192.23 163.562 192.044 162.926 192.044ZM174.538 199.406C174.178 199.67 173.752 199.868 173.26 200C172.768 200.144 172.252 200.216 171.712 200.216C171.016 200.216 170.428 200.108 169.948 199.892C169.468 199.664 169.072 199.346 168.76 198.938C168.46 198.518 168.238 198.02 168.094 197.444C167.962 196.856 167.896 196.208 167.896 195.5C167.896 193.976 168.232 192.812 168.904 192.008C169.576 191.192 170.542 190.784 171.802 190.784C172.378 190.784 172.864 190.832 173.26 190.928C173.668 191.012 174.034 191.138 174.358 191.306L173.944 192.548C173.668 192.392 173.362 192.272 173.026 192.188C172.69 192.092 172.33 192.044 171.946 192.044C170.242 192.044 169.39 193.196 169.39 195.5C169.39 195.956 169.432 196.394 169.516 196.814C169.612 197.222 169.762 197.588 169.966 197.912C170.182 198.224 170.458 198.476 170.794 198.668C171.142 198.86 171.568 198.956 172.072 198.956C172.504 198.956 172.888 198.89 173.224 198.758C173.572 198.626 173.854 198.476 174.07 198.308L174.538 199.406ZM181.982 192.26H179.156V200H177.716V192.26H174.89V191H181.982V192.26ZM188.919 196.022H184.851V200H183.411V191H184.851V194.762H188.919V191H190.359V200H188.919V196.022ZM192.628 195.5C192.628 193.976 192.964 192.812 193.636 192.008C194.32 191.192 195.298 190.784 196.57 190.784C197.242 190.784 197.824 190.898 198.316 191.126C198.82 191.342 199.234 191.66 199.558 192.08C199.882 192.488 200.122 192.986 200.278 193.574C200.434 194.15 200.512 194.792 200.512 195.5C200.512 197.024 200.17 198.194 199.486 199.01C198.814 199.814 197.842 200.216 196.57 200.216C195.898 200.216 195.31 200.108 194.806 199.892C194.314 199.664 193.906 199.346 193.582 198.938C193.258 198.518 193.018 198.02 192.862 197.444C192.706 196.856 192.628 196.208 192.628 195.5ZM194.122 195.5C194.122 195.956 194.164 196.394 194.248 196.814C194.344 197.234 194.488 197.6 194.68 197.912C194.872 198.224 195.124 198.476 195.436 198.668C195.748 198.86 196.126 198.956 196.57 198.956C198.202 198.968 199.018 197.816 199.018 195.5C199.018 195.032 198.97 194.588 198.874 194.168C198.79 193.748 198.652 193.382 198.46 193.07C198.268 192.758 198.016 192.512 197.704 192.332C197.392 192.14 197.014 192.044 196.57 192.044C194.938 192.032 194.122 193.184 194.122 195.5ZM208.038 192.26H204.222V200H202.782V191H208.038V192.26ZM208.642 195.5C208.642 193.976 208.978 192.812 209.65 192.008C210.334 191.192 211.312 190.784 212.584 190.784C213.256 190.784 213.838 190.898 214.33 191.126C214.834 191.342 215.248 191.66 215.572 192.08C215.896 192.488 216.136 192.986 216.292 193.574C216.448 194.15 216.526 194.792 216.526 195.5C216.526 197.024 216.184 198.194 215.5 199.01C214.828 199.814 213.856 200.216 212.584 200.216C211.912 200.216 211.324 200.108 210.82 199.892C210.328 199.664 209.92 199.346 209.596 198.938C209.272 198.518 209.032 198.02 208.876 197.444C208.72 196.856 208.642 196.208 208.642 195.5ZM210.136 195.5C210.136 195.956 210.178 196.394 210.262 196.814C210.358 197.234 210.502 197.6 210.694 197.912C210.886 198.224 211.138 198.476 211.45 198.668C211.762 198.86 212.14 198.956 212.584 198.956C214.216 198.968 215.032 197.816 215.032 195.5C215.032 195.032 214.984 194.588 214.888 194.168C214.804 193.748 214.666 193.382 214.474 193.07C214.282 192.758 214.03 192.512 213.718 192.332C213.406 192.14 213.028 192.044 212.584 192.044C210.952 192.032 210.136 193.184 210.136 195.5ZM65.0706 213.26H61.0926V221H59.6526V212H66.5106V221H65.0706V213.26ZM69.2854 212H70.2754L70.5454 213.08H70.6174C70.8934 212.66 71.2474 212.342 71.6794 212.126C72.1234 211.898 72.6274 211.784 73.1914 211.784C74.3914 211.784 75.2854 212.138 75.8734 212.846C76.4614 213.554 76.7554 214.712 76.7554 216.32C76.7554 217.076 76.6534 217.76 76.4494 218.372C76.2574 218.972 75.9814 219.482 75.6214 219.902C75.2614 220.322 74.8234 220.646 74.3074 220.874C73.8034 221.102 73.2394 221.216 72.6154 221.216C72.1714 221.216 71.8174 221.186 71.5534 221.126C71.3014 221.078 71.0254 220.988 70.7254 220.856V224.6H69.2854V212ZM72.9214 213.044C72.3094 213.044 71.8234 213.206 71.4634 213.53C71.1154 213.842 70.8694 214.322 70.7254 214.97V219.434C70.9414 219.602 71.1874 219.734 71.4634 219.83C71.7394 219.914 72.1054 219.956 72.5614 219.956C73.3894 219.956 74.0434 219.65 74.5234 219.038C75.0154 218.414 75.2614 217.502 75.2614 216.302C75.2614 215.81 75.2194 215.366 75.1354 214.97C75.0514 214.562 74.9134 214.22 74.7214 213.944C74.5414 213.656 74.3014 213.434 74.0014 213.278C73.7134 213.122 73.3534 213.044 72.9214 213.044ZM78.5197 216.5C78.5197 214.976 78.8557 213.812 79.5277 213.008C80.2117 212.192 81.1897 211.784 82.4617 211.784C83.1337 211.784 83.7157 211.898 84.2077 212.126C84.7117 212.342 85.1257 212.66 85.4497 213.08C85.7737 213.488 86.0137 213.986 86.1697 214.574C86.3257 215.15 86.4037 215.792 86.4037 216.5C86.4037 218.024 86.0617 219.194 85.3777 220.01C84.7057 220.814 83.7337 221.216 82.4617 221.216C81.7897 221.216 81.2017 221.108 80.6977 220.892C80.2057 220.664 79.7977 220.346 79.4737 219.938C79.1497 219.518 78.9097 219.02 78.7537 218.444C78.5977 217.856 78.5197 217.208 78.5197 216.5ZM80.0137 216.5C80.0137 216.956 80.0557 217.394 80.1397 217.814C80.2357 218.234 80.3797 218.6 80.5717 218.912C80.7637 219.224 81.0157 219.476 81.3277 219.668C81.6397 219.86 82.0177 219.956 82.4617 219.956C84.0937 219.968 84.9097 218.816 84.9097 216.5C84.9097 216.032 84.8617 215.588 84.7657 215.168C84.6817 214.748 84.5437 214.382 84.3517 214.07C84.1597 213.758 83.9077 213.512 83.5957 213.332C83.2837 213.14 82.9057 213.044 82.4617 213.044C80.8297 213.032 80.0137 214.184 80.0137 216.5ZM94.2901 215.672L94.3441 214.556H94.2901L93.5521 215.708L89.5021 221H88.6741V212H90.1141V217.49L90.0601 218.552H90.1321L90.8341 217.436L94.8841 212H95.7301V221H94.2901V215.672ZM99.3643 216.986V215.816H100.624C100.84 215.816 101.05 215.78 101.254 215.708C101.47 215.636 101.662 215.54 101.83 215.42C101.998 215.288 102.13 215.138 102.226 214.97C102.334 214.79 102.388 214.604 102.388 214.412C102.388 213.944 102.226 213.614 101.902 213.422C101.578 213.23 101.092 213.134 100.444 213.134C99.9763 213.134 99.5443 213.206 99.1483 213.35C98.7643 213.494 98.4643 213.632 98.2483 213.764L97.8343 212.648C98.1943 212.444 98.6143 212.264 99.0943 212.108C99.5863 211.952 100.168 211.874 100.84 211.874C102.832 211.874 103.828 212.612 103.828 214.088C103.828 214.508 103.69 214.922 103.414 215.33C103.15 215.726 102.766 216.008 102.262 216.176V216.248C102.97 216.38 103.462 216.632 103.738 217.004C104.026 217.376 104.17 217.868 104.17 218.48C104.17 218.864 104.092 219.218 103.936 219.542C103.78 219.866 103.546 220.148 103.234 220.388C102.922 220.628 102.526 220.82 102.046 220.964C101.578 221.096 101.032 221.162 100.408 221.162C99.7963 221.162 99.2863 221.108 98.8783 221C98.4823 220.892 98.1223 220.76 97.7983 220.604L98.2123 219.416C98.4883 219.572 98.8183 219.692 99.2023 219.776C99.5983 219.86 100.024 219.902 100.48 219.902C101.212 219.902 101.77 219.776 102.154 219.524C102.538 219.272 102.73 218.888 102.73 218.372C102.73 217.94 102.55 217.604 102.19 217.364C101.83 217.112 101.236 216.986 100.408 216.986H99.3643ZM106.446 212.018C106.866 211.994 107.304 211.964 107.76 211.928C108.228 211.892 108.804 211.874 109.488 211.874C110.676 211.874 111.528 212.06 112.044 212.432C112.56 212.792 112.818 213.344 112.818 214.088C112.818 214.508 112.692 214.922 112.44 215.33C112.2 215.726 111.798 216.02 111.234 216.212V216.284C111.942 216.416 112.44 216.662 112.728 217.022C113.016 217.382 113.16 217.862 113.16 218.462C113.16 219.398 112.824 220.076 112.152 220.496C111.48 220.916 110.472 221.126 109.128 221.126C108.624 221.126 108.156 221.108 107.724 221.072C107.292 221.048 106.866 221.018 106.446 220.982V212.018ZM107.886 219.794C108.114 219.818 108.336 219.836 108.552 219.848C108.78 219.86 109.044 219.866 109.344 219.866C110.148 219.866 110.742 219.752 111.126 219.524C111.522 219.296 111.72 218.906 111.72 218.354C111.72 217.922 111.552 217.574 111.216 217.31C110.892 217.034 110.31 216.896 109.47 216.896H107.886V219.794ZM109.65 215.798C109.866 215.798 110.076 215.762 110.28 215.69C110.484 215.618 110.664 215.522 110.82 215.402C110.988 215.27 111.12 215.12 111.216 214.952C111.324 214.784 111.378 214.604 111.378 214.412C111.378 213.932 111.234 213.602 110.946 213.422C110.658 213.23 110.154 213.134 109.434 213.134C109.05 213.134 108.744 213.14 108.516 213.152C108.3 213.164 108.09 213.176 107.886 213.188V215.798H109.65ZM114.924 216.5C114.924 214.976 115.26 213.812 115.932 213.008C116.616 212.192 117.594 211.784 118.866 211.784C119.538 211.784 120.12 211.898 120.612 212.126C121.116 212.342 121.53 212.66 121.854 213.08C122.178 213.488 122.418 213.986 122.574 214.574C122.73 215.15 122.808 215.792 122.808 216.5C122.808 218.024 122.466 219.194 121.782 220.01C121.11 220.814 120.138 221.216 118.866 221.216C118.194 221.216 117.606 221.108 117.102 220.892C116.61 220.664 116.202 220.346 115.878 219.938C115.554 219.518 115.314 219.02 115.158 218.444C115.002 217.856 114.924 217.208 114.924 216.5ZM116.418 216.5C116.418 216.956 116.46 217.394 116.544 217.814C116.64 218.234 116.784 218.6 116.976 218.912C117.168 219.224 117.42 219.476 117.732 219.668C118.044 219.86 118.422 219.956 118.866 219.956C120.498 219.968 121.314 218.816 121.314 216.5C121.314 216.032 121.266 215.588 121.17 215.168C121.086 214.748 120.948 214.382 120.756 214.07C120.564 213.758 120.312 213.512 120 213.332C119.688 213.14 119.31 213.044 118.866 213.044C117.234 213.032 116.418 214.184 116.418 216.5ZM132.929 223.286H131.957L131.687 221H124.919L124.649 223.286H123.677V219.74H124.739C124.835 219.608 124.961 219.374 125.117 219.038C125.273 218.69 125.423 218.21 125.567 217.598C125.723 216.974 125.855 216.206 125.963 215.294C126.083 214.37 126.155 213.272 126.179 212H131.615V219.74H132.929V223.286ZM130.175 219.74V213.26H127.475C127.451 213.764 127.409 214.316 127.349 214.916C127.289 215.504 127.205 216.098 127.097 216.698C127.001 217.286 126.875 217.844 126.719 218.372C126.563 218.9 126.383 219.356 126.179 219.74H130.175ZM140.849 220.406C140.489 220.67 140.063 220.868 139.571 221C139.079 221.144 138.563 221.216 138.023 221.216C137.327 221.216 136.739 221.108 136.259 220.892C135.779 220.664 135.383 220.346 135.071 219.938C134.771 219.518 134.549 219.02 134.405 218.444C134.273 217.856 134.207 217.208 134.207 216.5C134.207 214.976 134.543 213.812 135.215 213.008C135.887 212.192 136.853 211.784 138.113 211.784C138.689 211.784 139.175 211.832 139.571 211.928C139.979 212.012 140.345 212.138 140.669 212.306L140.255 213.548C139.979 213.392 139.673 213.272 139.337 213.188C139.001 213.092 138.641 213.044 138.257 213.044C136.553 213.044 135.701 214.196 135.701 216.5C135.701 216.956 135.743 217.394 135.827 217.814C135.923 218.222 136.073 218.588 136.277 218.912C136.493 219.224 136.769 219.476 137.105 219.668C137.453 219.86 137.879 219.956 138.383 219.956C138.815 219.956 139.199 219.89 139.535 219.758C139.883 219.626 140.165 219.476 140.381 219.308L140.849 220.406ZM148.293 213.26H145.467V221H144.027V213.26H141.201V212H148.293V213.26ZM149.723 212.018C150.143 211.994 150.581 211.964 151.037 211.928C151.505 211.892 152.081 211.874 152.765 211.874C153.953 211.874 154.805 212.06 155.321 212.432C155.837 212.792 156.095 213.344 156.095 214.088C156.095 214.508 155.969 214.922 155.717 215.33C155.477 215.726 155.075 216.02 154.511 216.212V216.284C155.219 216.416 155.717 216.662 156.005 217.022C156.293 217.382 156.437 217.862 156.437 218.462C156.437 219.398 156.101 220.076 155.429 220.496C154.757 220.916 153.749 221.126 152.405 221.126C151.901 221.126 151.433 221.108 151.001 221.072C150.569 221.048 150.143 221.018 149.723 220.982V212.018ZM151.163 219.794C151.391 219.818 151.613 219.836 151.829 219.848C152.057 219.86 152.321 219.866 152.621 219.866C153.425 219.866 154.019 219.752 154.403 219.524C154.799 219.296 154.997 218.906 154.997 218.354C154.997 217.922 154.829 217.574 154.493 217.31C154.169 217.034 153.587 216.896 152.747 216.896H151.163V219.794ZM152.927 215.798C153.143 215.798 153.353 215.762 153.557 215.69C153.761 215.618 153.941 215.522 154.097 215.402C154.265 215.27 154.397 215.12 154.493 214.952C154.601 214.784 154.655 214.604 154.655 214.412C154.655 213.932 154.511 213.602 154.223 213.422C153.935 213.23 153.431 213.134 152.711 213.134C152.327 213.134 152.021 213.14 151.793 213.152C151.577 213.164 151.367 213.176 151.163 213.188V215.798H152.927ZM158.561 212.666C159.017 212.39 159.545 212.186 160.145 212.054C160.757 211.922 161.393 211.856 162.053 211.856C162.677 211.856 163.175 211.94 163.547 212.108C163.931 212.276 164.219 212.498 164.411 212.774C164.615 213.038 164.747 213.332 164.807 213.656C164.879 213.98 164.915 214.304 164.915 214.628C164.915 215.348 164.897 216.05 164.861 216.734C164.825 217.418 164.807 218.066 164.807 218.678C164.807 219.122 164.825 219.542 164.861 219.938C164.897 220.334 164.963 220.7 165.059 221.036H163.997L163.619 219.776H163.529C163.421 219.944 163.283 220.112 163.115 220.28C162.959 220.436 162.767 220.58 162.539 220.712C162.311 220.832 162.047 220.934 161.747 221.018C161.447 221.102 161.105 221.144 160.721 221.144C160.337 221.144 159.977 221.084 159.641 220.964C159.317 220.844 159.035 220.676 158.795 220.46C158.555 220.232 158.363 219.962 158.219 219.65C158.087 219.338 158.021 218.984 158.021 218.588C158.021 218.06 158.129 217.622 158.345 217.274C158.561 216.914 158.861 216.632 159.245 216.428C159.641 216.212 160.109 216.062 160.649 215.978C161.201 215.882 161.807 215.834 162.467 215.834C162.635 215.834 162.797 215.834 162.953 215.834C163.121 215.834 163.289 215.846 163.457 215.87C163.493 215.51 163.511 215.186 163.511 214.898C163.511 214.238 163.379 213.776 163.115 213.512C162.851 213.248 162.371 213.116 161.675 213.116C161.471 213.116 161.249 213.134 161.009 213.17C160.781 213.194 160.541 213.236 160.289 213.296C160.049 213.344 159.815 213.41 159.587 213.494C159.371 213.566 159.179 213.65 159.011 213.746L158.561 212.666ZM161.117 219.884C161.453 219.884 161.753 219.842 162.017 219.758C162.281 219.662 162.509 219.548 162.701 219.416C162.893 219.272 163.049 219.116 163.169 218.948C163.301 218.78 163.397 218.618 163.457 218.462V216.968C163.289 216.956 163.115 216.95 162.935 216.95C162.767 216.938 162.599 216.932 162.431 216.932C162.059 216.932 161.693 216.956 161.333 217.004C160.985 217.04 160.673 217.118 160.397 217.238C160.133 217.346 159.917 217.502 159.749 217.706C159.593 217.898 159.515 218.144 159.515 218.444C159.515 218.864 159.665 219.212 159.965 219.488C160.265 219.752 160.649 219.884 161.117 219.884ZM168.535 208.4H170.029V214.646L169.723 217.814H168.841L168.535 214.646V208.4ZM168.229 220.172C168.229 219.848 168.319 219.596 168.499 219.416C168.691 219.224 168.943 219.128 169.255 219.128C169.579 219.128 169.837 219.224 170.029 219.416C170.221 219.596 170.317 219.848 170.317 220.172C170.317 220.484 170.221 220.736 170.029 220.928C169.837 221.12 169.579 221.216 169.255 221.216C168.943 221.216 168.691 221.12 168.499 220.928C168.319 220.736 168.229 220.484 168.229 220.172Z" fill="#333333"/>
</svg>
